<svg height="496pt" viewBox="0 0 496 496.712" width="496pt" xmlns="http://www.w3.org/2000/svg"><path d="m224.355469 448.710938v-48.710938c0-44.664062-21.742188-82.777344-62.878907-110.199219-5.710937-3.808593-9.121093-10.175781-9.121093-17.039062 0-7.433594 4.039062-14.296875 10.527343-17.90625 11.425782-6.351563 21.519532-14.441407 30.089844-23.808594 26.878906 54.441406 81.792969 88.953125 143.382813 88.953125 88.222656 0 160-71.777344 160-160s-71.777344-160-160-160c-42.800781 0-84.09375 17.519531-114.054688 48h-205.945312c-8.824219 0-16 7.175781-16 16v16c0 8.824219 7.175781 16 16 16v54.390625c0 43.378906 23.550781 83.402344 61.472656 104.464844 6.488281 3.609375 10.527344 10.472656 10.527344 17.90625 0 6.855469-3.40625 13.230469-9.121094 17.039062-41.132813 27.421875-62.878906 65.535157-62.878906 110.199219v48.710938c-8.824219 0-16 7.175781-16 16v16c0 8.824218 7.175781 16 16 16h208c8.824219 0 16-7.175782 16-16v-16c0-8.824219-7.175781-16-16-16zm255.59375-296.710938h-55.59375v16h55.59375c-4.042969 73.007812-62.585938 131.550781-135.59375 135.59375v-55.59375h-16v55.703125c-54.734375-2.976563-102.503907-36.253906-124.238281-86.839844 9.75-14.566406 16.261718-31.230469 18.886718-48.863281h25.351563v-16h-24.054688c.007813-.535156.054688-1.070312.054688-1.609375v-54.390625c8.824219 0 16-7.175781 16-16v-16c0-3.207031-.96875-6.191406-2.609375-8.695312 24.851562-23.488282 56.457031-37.058594 90.609375-38.90625v55.601562h16v-55.59375c73.007812 4.042969 131.550781 62.585938 135.59375 135.59375zm-463.59375-88h208l.015625 16h-208.015625zm192 32v16h-32v16h32v22.390625c0 3.175781-.199219 6.320313-.488281 9.441406-27.894532-.800781-53.613282-5.304687-76.527344-9.367187-19.59375-3.464844-36.503906-6.464844-50.984375-6.464844-20.046875 0-37.023438 5.761719-47.855469 10.648438-.054688-1.417969-.144531-2.832032-.144531-4.257813v-22.390625h128v-16h-128v-16zm-120.238281 207.113281c10.167968-6.785156 16.238281-18.128906 16.238281-30.351562 0-13.242188-7.183594-25.464844-18.765625-31.890625-26.59375-14.765625-45.019532-40.320313-51.066406-69.445313 8.417968-4.320312 25.351562-11.425781 45.832031-11.425781 13.074219 0 29.34375 2.878906 48.183593 6.214844 22.882813 4.058594 48.464844 8.570312 76.601563 9.570312-6.921875 27.304688-24.769531 51.054688-50.015625 65.078125-11.585938 6.433594-18.769531 18.648438-18.769531 31.898438 0 12.222656 6.074219 23.566406 16.242187 30.351562 37 24.671875 55.757813 57.261719 55.757813 96.886719v43.054688l-10.253907-5.125c-16.601562-8.304688-31.664062-19.167969-44.777343-32.273438-8.679688-8.679688-20.695313-13.65625-32.96875-13.65625-12.269531 0-24.289063 4.976562-32.96875 13.65625-13.109375 13.113281-28.167969 23.96875-44.773438 32.273438l-10.257812 5.125v-43.054688c0-39.625 18.761719-72.214844 55.761719-96.886719zm96.421874 145.597657h-128.367187c15.59375-8.566407 29.929687-19.144532 42.527344-31.742188 5.703125-5.703125 13.59375-8.96875 21.65625-8.96875 8.066406 0 15.953125 3.265625 21.65625 8.96875 12.601562 12.597656 26.9375 23.167969 42.527343 31.742188zm-168.183593 32v-16h208l.007812 16zm0 0"/><path d="m112.355469 360h16v16h-16zm0 0"/><path d="m112.355469 328h16v16h-16zm0 0"/><path d="m112.355469 296h16v16h-16zm0 0"/><path d="m376.355469 416h-40v80h16v-32h24c13.234375 0 24-10.769531 24-24s-10.765625-24-24-24zm0 32h-24v-16h24c4.417969 0 8 3.585938 8 8s-3.582031 8-8 8zm0 0"/><path d="m472.355469 416c-6.167969 0-11.742188 2.40625-16 6.238281-4.253907-3.839843-9.832031-6.238281-16-6.238281-13.230469 0-24 10.769531-24 24v56h16v-56c0-4.414062 3.585937-8 8-8 4.417969 0 8 3.585938 8 8v56h16v-56c0-4.414062 3.585937-8 8-8 4.417969 0 8 3.585938 8 8v56h16v-56c0-13.230469-10.765625-24-24-24zm0 0"/><path d="m256.355469 432h16v64h16v-80h-32zm0 0"/><path d="m304.355469 480h16v16h-16zm0 0"/><path d="m358.203125 106.144531-13.847656 24v-42.144531h-16v49.472656c-9.289063 3.3125-16 12.113282-16 22.527344 0 13.230469 10.769531 24 24 24 13.234375 0 24-10.769531 24-24 0-5.929688-2.238281-11.296875-5.816407-15.488281l17.527344-30.375zm-21.847656 61.855469c-4.414063 0-8-3.585938-8-8s3.585937-8 8-8c4.417969 0 8 3.585938 8 8s-3.582031 8-8 8zm0 0"/></svg>