<?xml version="1.0"?>
<svg xmlns="http://www.w3.org/2000/svg" viewBox="0 0 512 512" width="512" height="512"><g id="Outline"><path d="M304,180.564h16.934a115.032,115.032,0,0,0,33.385-4.9l-4.638-15.312a99.1,99.1,0,0,1-28.747,4.215H304Z"/><path d="M292,136.005a12,12,0,1,0-12-12A12.013,12.013,0,0,0,292,136.005Z"/><path d="M364,136.005a12,12,0,1,0-12-12A12.013,12.013,0,0,0,364,136.005Z"/><path d="M447.919,282.192l-14.612-2.087L400,273.777V264a8,8,0,0,0-10.53-7.59l-10.824,3.608A25.331,25.331,0,0,1,376,248.72V223.966A79.766,79.766,0,0,0,407.6,168h.4a32,32,0,0,0,0-64V64a50.8,50.8,0,0,0-1.731-13.641A31.845,31.845,0,0,0,408,40V24a8,8,0,0,0-8-8H296a48.017,48.017,0,0,0-41.612,24.121c-.159.241-.343.53-.556.913a36.738,36.738,0,0,0-5.466,17.138C248.134,60.084,248,104,248,104v0a32,32,0,1,0,0,64h.405A79.76,79.76,0,0,0,280,223.967V248.72a25.4,25.4,0,0,1-2.665,11.292l-10.805-3.6A8,8,0,0,0,256,264v9.777l-33.309,6.328-14.676,2.063-.015,0v-3.021c18.235-3.929,32-21.014,32-41.435a306.992,306.992,0,0,0-3.725-46.942A8,8,0,0,0,228.37,184H123.6a7.947,7.947,0,0,0-1.924.241A48.055,48.055,0,0,0,104,166.471V88a8,8,0,0,0-8-8H64a8,8,0,0,0-8,8v78.471A47.99,47.99,0,0,0,32,208V320H24a8,8,0,0,0-8,8,40.045,40.045,0,0,0,40,40h8a48.053,48.053,0,0,0,48,48h7.24l-7.207,79.275,15.934,1.45,3.7-40.725H176v40h16V384a31.793,31.793,0,0,0-4.305-16H200a39.759,39.759,0,0,0,16-3.35V496h16V351.972A39.789,39.789,0,0,0,240,328a8,8,0,0,0-8-8V294.623l24-4.56V328a8,8,0,0,0,10.53,7.59l10.329-3.443L320,449.424V496h16V449.424l43.141-117.277,10.329,3.443A8,8,0,0,0,400,328V290.063l24,4.56V408H368a8,8,0,0,0-8,8v32a8,8,0,0,0,8,8h56v40h16V297.224l5.656.808A40.2,40.2,0,0,1,480,337.63V496h16V337.63A56.277,56.277,0,0,0,447.919,282.192ZM180.1,320A40.33,40.33,0,0,1,192,305.689V320ZM128,271.513a38.83,38.83,0,0,0,16,7.635V320H128Zm32,7.624a38.713,38.713,0,0,0,16-7.613,38.861,38.861,0,0,0,16,7.625v7.918A56.371,56.371,0,0,0,162.842,320H160ZM180.4,200h41.04A287.272,287.272,0,0,1,224,237.714C224,252.208,213.233,264,200,264s-24-11.792-24-26.286A287.272,287.272,0,0,1,178.56,200Zm-17.96,0A302.4,302.4,0,0,0,160,237.714a43.84,43.84,0,0,0,5.64,21.617A22.144,22.144,0,0,1,152,264c-13.233,0-24-11.808-24-26.32A290.214,290.214,0,0,1,130.541,200ZM72,96H88v16H72ZM48,224H72v56H48Zm0,72H80a8,8,0,0,0,8-8V216a8,8,0,0,0-8-8H48a32,32,0,0,1,19.208-29.294A8,8,0,0,0,72,171.377V128H88v43.377a8,8,0,0,0,4.792,7.329A32,32,0,0,1,112,208V320H48Zm85.124,144,2.182-24H176v24ZM176,384v16H112a32.036,32.036,0,0,1-32-32h80A16.019,16.019,0,0,1,176,384ZM56,352a24.042,24.042,0,0,1-22.629-16H222.629A24.042,24.042,0,0,1,200,352Zm152-32V298.433c.777-.167,1.55-.317,2.313-.431l5.687-.8V320Zm134.7-48H313.3l-20.685-6.895A41.5,41.5,0,0,0,296,248.72v-15.4a79.948,79.948,0,0,0,64,0v15.4a41.284,41.284,0,0,0,3.376,16.388ZM336,288v16H320V288ZM264,72h16.6c-5.039,6.3-10.674,13.1-16.6,19.776Zm30.13-16,14.4-24h21.34l-14.4,24Zm54.4-24h21.34l-14.4,24H334.13ZM392,67.695V91.776C386.075,85.1,380.44,78.3,375.4,72h.6A31.8,31.8,0,0,0,392,67.695ZM424,136a16.019,16.019,0,0,1-16,16V120A16.019,16.019,0,0,1,424,136ZM392,40a16.019,16.019,0,0,1-16,16h-1.87l14.4-24H392ZM289.465,32.675,275.47,56H265.013A32.1,32.1,0,0,1,289.465,32.675ZM232,136a16.019,16.019,0,0,1,16-16v32A16.019,16.019,0,0,1,232,136Zm32,24V115.28c13.922-14.247,27.309-30.757,36.918-43.28h54.164c9.609,12.523,23,29.033,36.918,43.28V160a64,64,0,0,1-128,0Zm8,115.1,5.947,1.982c.11.041.21.1.323.133l2.2.707L304,285.766v20.468L272,316.9ZM313.3,320H320v83.08l-27.956-75.995ZM336,403.08V320h6.7l21.256,7.085Zm48-86.18-32-10.666V285.766l23.531-7.844,2.2-.707c.109-.035.206-.09.312-.13L384,275.1ZM376,440V424h48v16Z"/></g></svg>
